<?xml version="1.0" encoding="UTF-8"?>
<svg id="_레이어_1" data-name="레이어 1" xmlns="http://www.w3.org/2000/svg" viewBox="0 0 32 32">
  <defs>
    <style>
      .cls-1 {
        fill: #ff0064;
      }
    </style>
  </defs>
  <path class="cls-1" d="M20.99,17.08c-1.26,0-2.45-.38-3.46-1.08,1.01-.7,2.2-1.08,3.46-1.08,1.05,0,2.03-.41,2.76-1.14.74-.74,1.15-1.72,1.15-2.76s-.41-2.03-1.14-2.76c-.74-.74-1.72-1.15-2.77-1.15-2.16,0-3.91,1.75-3.91,3.91,0,1.25-.38,2.45-1.08,3.46-.7-1-1.08-2.2-1.08-3.46,0-2.16-1.75-3.91-3.91-3.91-1.05,0-2.03.41-2.76,1.14-.74.74-1.15,1.72-1.15,2.76s.41,2.03,1.14,2.76c.74.74,1.72,1.15,2.77,1.15,1.26,0,2.45.38,3.46,1.08-1.01.7-2.2,1.08-3.46,1.08-2.16,0-3.91,1.75-3.91,3.91,0,1.05.41,2.03,1.14,2.76.74.74,1.72,1.15,2.77,1.15s2.03-.41,2.76-1.14c.74-.74,1.15-1.72,1.15-2.76,0-1.25.38-2.45,1.08-3.46.7,1,1.08,2.2,1.08,3.46,0,1.05.41,2.03,1.14,2.76.74.74,1.72,1.15,2.77,1.15s2.03-.41,2.76-1.14c.74-.74,1.15-1.72,1.15-2.76,0-2.16-1.75-3.91-3.91-3.91Z"/>
</svg>